<svg xml:space="preserve" viewBox="466.56 466.56 149.04000000000002 146.88000000000002" version="1.1" xmlns:xlink="http://www.w3.org/1999/xlink" xmlns="http://www.w3.org/2000/svg" style="max-height: 500px" width="149.04000000000002" height="146.88000000000002">
<desc>Created with Fabric.js 5.2.4</desc>
<defs>
</defs>
<rect fill="transparent" height="100%" width="100%" y="0" x="0"/>
<g id="d399c94d-6fc6-4104-85d8-0ef10b81e3bd" transform="matrix(1 0 0 1 540 540)">
<rect height="1080" width="1080" ry="0" rx="0" y="-540" x="-540" style="stroke: none; stroke-width: 1; stroke-dasharray: none; stroke-linecap: butt; stroke-dashoffset: 0; stroke-linejoin: miter; stroke-miterlimit: 4; fill: rgb(255,255,255); fill-rule: nonzero; opacity: 1; visibility: hidden;"/>
</g>
<g id="8d0d7a9b-69c1-418c-a4d7-c37789e25119" transform="matrix(1 0 0 1 540 540)">
</g>
<g id="7f68cbba-3807-4dd9-a636-7f2b13071059" transform="matrix(1.77 0 0 1.77 540.78 540.78)">
<circle r="35" cy="0" cx="0" style="stroke: rgb(0,0,0); stroke-width: 0; stroke-dasharray: none; stroke-linecap: butt; stroke-dashoffset: 0; stroke-linejoin: miter; stroke-miterlimit: 4; fill: rgb(255,255,255); fill-rule: nonzero; opacity: 1;"/>
</g>
<g id="dc5d13f6-50d2-4687-b7f8-3dfa776b38dd" transform="matrix(-1 0 0 -1 540 540)">
<path stroke-linecap="round" d="M 30 130 C 4 104 4 56 30 30 C 73 -13 150 19 150 80 C 150 118 118 150 80 150 C 63 150 41 141 30 130 z M 130 110 C 130 105 121 100 110 100 C 93 100 90 93 90 60 C 90 38 86 20 80 20 C 75 20 70 38 70 60 C 70 93 67 100 50 100 C 39 100 30 105 30 110 C 30 116 53 120 80 120 C 108 120 130 116 130 110 z" transform="translate(-80.25, -80.13)" style="stroke: rgb(0,0,0); stroke-width: 0; stroke-dasharray: none; stroke-linecap: butt; stroke-dashoffset: 0; stroke-linejoin: miter; stroke-miterlimit: 4; fill: rgb(0,82,120); fill-rule: nonzero; opacity: 1;"/>
</g>
</svg>